<?xml version="1.0" standalone="no"?>
<!DOCTYPE svg PUBLIC "-//W3C//DTD SVG 20010904//EN"
 "http://www.w3.org/TR/2001/REC-SVG-20010904/DTD/svg10.dtd">
<svg version="1.0" xmlns="http://www.w3.org/2000/svg"
 width="1024.000000pt" height="1024.000000pt" viewBox="0 0 1024.000000 1024.000000"
 preserveAspectRatio="xMidYMid meet">
<metadata>
Created by potrace 1.14, written by Peter Selinger 2001-2017
</metadata>
<g transform="translate(0.000000,1024.000000) scale(0.100000,-0.100000)"
fill="#000000" stroke="none">
<path d="M0 5120 l0 -5120 5120 0 5120 0 0 5120 0 5120 -5120 0 -5120 0 0
-5120z m5219 3552 c32 -48 85 -112 117 -143 64 -60 152 -124 161 -116 2 3 15
38 28 78 l23 73 45 -90 c52 -103 121 -198 180 -250 41 -35 171 -124 182 -124
3 0 5 9 5 21 0 11 3 19 8 17 4 -1 88 -88 187 -193 421 -444 466 -479 893 -701
175 -91 249 -134 236 -137 -11 -3 -107 -22 -214 -42 -107 -20 -203 -39 -214
-42 -14 -4 2 -16 62 -48 209 -112 317 -224 363 -378 28 -89 22 -202 -16 -332
-60 -205 -164 -375 -335 -545 -115 -115 -280 -251 -280 -230 0 6 16 64 35 129
51 173 76 301 77 405 1 152 -22 230 -35 118 -3 -27 -24 -134 -46 -238 -91
-428 -84 -511 93 -1173 14 -52 24 -96 23 -98 -3 -2 -78 65 -266 236 l-87 80 0
-82 c1 -101 -27 -169 -99 -240 -27 -27 -153 -118 -280 -202 -223 -148 -266
-182 -535 -424 -52 -48 -87 -75 -79 -61 123 193 230 363 249 395 22 36 14 31
-71 -45 -53 -47 -127 -111 -166 -142 -94 -78 -321 -228 -343 -228 -22 0 -228
137 -338 226 -46 36 -121 102 -168 146 -46 44 -84 76 -84 71 0 -6 57 -100 126
-209 69 -109 129 -206 132 -214 3 -8 -67 52 -157 133 -187 170 -244 214 -488
374 -97 64 -201 139 -231 167 -88 83 -128 187 -112 291 4 25 5 45 4 45 -2 0
-83 -72 -179 -160 -96 -88 -177 -160 -179 -160 -3 0 6 39 19 88 182 679 187
750 91 1213 -24 118 -46 230 -48 249 l-4 35 -13 -45 c-10 -32 -12 -80 -8 -170
6 -128 25 -222 86 -420 16 -52 27 -97 26 -98 -8 -9 -241 186 -313 262 -182
193 -304 431 -333 652 -32 242 71 407 355 567 56 32 93 58 85 61 -8 2 -106 21
-219 42 -113 21 -209 40 -213 44 -4 4 95 60 220 125 439 228 494 270 924 724
145 154 175 181 177 162 4 -28 13 -25 95 31 122 82 236 219 287 342 12 31 25
56 29 56 4 0 17 -31 30 -70 13 -38 27 -70 31 -70 14 0 97 64 153 119 71 68
159 190 193 268 l26 58 19 -48 c10 -26 45 -87 78 -135z m-318 -5562 c113 -22
201 -86 249 -183 102 -208 30 -469 -154 -552 -106 -49 -259 -51 -362 -6 -66
30 -137 102 -170 174 -39 87 -46 225 -15 326 56 183 239 281 452 241z m3615
-14 c95 -29 194 -146 194 -229 l0 -28 -97 3 -97 3 -8 31 c-4 18 -24 46 -43 63
-30 26 -44 31 -86 31 -84 0 -147 -50 -170 -133 -14 -52 -14 -172 1 -225 28
-107 137 -161 230 -114 31 15 80 72 80 93 0 5 -31 9 -70 9 l-70 0 0 75 0 75
165 0 165 0 0 -200 0 -200 -79 0 -79 0 -7 58 -8 57 -18 -42 c-9 -23 -29 -49
-42 -58 -39 -25 -132 -36 -206 -24 -172 27 -267 145 -278 344 -13 224 96 382
292 425 54 12 168 5 231 -14z m-6386 -71 l0 -75 -185 0 -186 0 3 -72 3 -73
168 -3 167 -2 0 -75 0 -75 -170 0 -170 0 0 -150 0 -150 -95 0 -95 0 0 375 0
375 280 0 280 0 0 -75z m292 -193 c3 -235 5 -271 21 -295 27 -42 72 -60 134
-55 63 5 98 33 113 87 5 20 10 147 10 284 l0 247 95 0 95 0 0 -282 c0 -278 -1
-284 -24 -335 -45 -95 -149 -146 -301 -146 -151 -1 -250 42 -302 130 l-28 48
-3 293 -3 292 95 0 95 0 3 -268z m1218 193 l0 -75 -125 0 -125 0 0 -300 0
-300 -100 0 -100 0 0 300 0 300 -120 0 -120 0 0 75 0 75 345 0 345 0 0 -75z
m521 65 c96 -27 153 -105 146 -200 -4 -49 -8 -58 -49 -95 l-45 -40 36 -17 c58
-28 86 -79 86 -157 0 -82 -23 -132 -78 -172 -70 -51 -119 -59 -344 -59 l-203
0 0 375 0 375 208 0 c114 0 223 -5 243 -10z m1349 -280 l0 -290 190 0 190 0 0
-85 0 -85 -290 0 -290 0 0 375 0 375 100 0 100 0 0 -290z m692 131 l3 -160
138 160 137 159 117 0 116 0 -19 -22 c-10 -12 -79 -87 -153 -167 -73 -80 -135
-151 -138 -158 -2 -6 63 -97 146 -202 83 -105 151 -193 151 -196 0 -3 -54 -5
-119 -5 l-119 0 -94 127 c-51 70 -98 134 -105 142 -10 14 -14 13 -37 -8 -25
-24 -26 -29 -26 -143 l0 -118 -100 0 -100 0 0 375 0 375 100 0 100 0 2 -159z
m808 -216 l0 -375 -100 0 -100 0 0 375 0 375 100 0 100 0 0 -375z m528 121
l137 -248 3 251 2 251 95 0 95 0 0 -375 0 -375 -128 0 -127 0 -125 227 c-69
124 -129 234 -135 244 -7 12 -9 -60 -7 -227 l3 -244 -100 0 -101 0 0 375 0
376 126 -3 125 -3 137 -249z m-4788 -986 l0 -130 80 0 80 0 0 -30 0 -30 -115
0 -115 0 0 160 0 160 35 0 35 0 0 -130z m582 83 c8 -27 34 -99 56 -160 l41
-113 -39 0 c-36 0 -39 2 -52 43 l-15 42 -53 0 -53 0 -14 -42 c-14 -40 -17 -43
-52 -43 l-38 0 48 133 c26 72 52 144 58 160 9 24 16 27 54 27 43 0 43 -1 59
-47z m777 20 c16 -16 32 -38 36 -50 6 -21 3 -23 -28 -23 -26 0 -39 6 -51 26
-13 18 -24 24 -44 22 -22 -2 -27 -8 -27 -32 0 -26 5 -31 54 -48 74 -24 101
-52 101 -99 0 -79 -112 -119 -203 -73 -23 12 -47 48 -47 70 0 14 69 1 85 -16
22 -24 67 -26 86 -4 20 25 -1 46 -66 69 -73 25 -100 58 -91 110 14 74 135 104
195 48z m511 -3 l0 -30 -80 0 -80 0 0 -35 0 -34 73 -3 c70 -3 72 -4 75 -30 l3
-28 -75 0 -76 0 0 -35 0 -35 80 0 80 0 0 -30 0 -30 -115 0 -115 0 0 160 0 160
115 0 115 0 0 -30z m457 4 c45 -34 43 -105 -2 -126 l-25 -11 20 -22 c12 -12
23 -40 27 -61 3 -21 10 -47 15 -56 8 -16 4 -18 -30 -18 l-40 0 -13 57 c-12 48
-18 58 -42 66 -47 15 -57 4 -57 -63 l0 -60 -35 0 -35 0 0 161 0 161 95 -4 c76
-3 100 -8 122 -24z m343 -134 l0 -160 -35 0 -35 0 0 160 0 160 35 0 35 0 0
-160z m480 130 l0 -30 -75 0 -75 0 0 -35 0 -35 70 0 70 0 0 -30 0 -30 -70 0
-70 0 0 -35 0 -35 80 0 80 0 0 -30 0 -30 -120 0 -120 0 0 153 c0 85 3 157 7
160 3 4 55 7 115 7 l108 0 0 -30z m702 -17 c8 -27 34 -99 56 -160 l41 -113
-39 0 c-36 0 -39 2 -52 43 l-15 42 -53 0 -53 0 -14 -42 c-14 -40 -17 -43 -52
-43 l-38 0 48 133 c26 72 52 144 58 160 9 24 16 27 54 27 43 0 43 -1 59 -47z
m362 -206 c11 -8 17 -23 14 -38 -2 -20 -8 -24 -38 -24 -30 0 -36 4 -38 24 -4
22 18 51 38 51 3 0 14 -6 24 -13z m297 3 c39 -22 12 -87 -31 -72 -32 11 -39
42 -14 66 18 19 20 19 45 6z m320 -21 c14 -27 -23 -64 -50 -50 -28 16 -33 39
-11 61 22 22 45 17 61 -11z"/>
<path d="M5065 8616 c-75 -100 -174 -190 -275 -250 -86 -51 -99 -51 -100 2 0
33 -12 27 -45 -25 -60 -96 -159 -187 -313 -288 -2 -2 27 -88 43 -126 5 -15 -3
-17 -74 -15 l-81 1 0 45 0 45 -108 -112 c-59 -61 -152 -160 -207 -219 -172
-185 -349 -313 -622 -452 -84 -42 -153 -79 -153 -82 0 -10 356 -70 427 -73 40
-1 73 -3 73 -4 0 -2 -71 -38 -158 -81 -267 -132 -372 -216 -435 -349 -29 -62
-32 -76 -31 -163 1 -235 141 -513 368 -733 32 -32 71 -67 86 -77 l27 -19 -19
67 c-36 130 -51 249 -45 366 5 128 21 180 75 250 44 58 111 114 97 81 -4 -11
-14 -47 -22 -80 -17 -75 -8 -154 47 -408 84 -390 80 -537 -25 -940 -39 -148
-41 -166 -24 -153 55 38 285 266 323 320 51 72 109 185 142 276 l24 65 -6 -55
c-10 -89 -41 -176 -114 -325 -74 -149 -92 -216 -78 -294 18 -102 83 -166 344
-336 76 -49 174 -116 216 -147 43 -32 79 -58 81 -58 1 0 -23 52 -54 115 -102
206 -170 426 -168 539 l2 61 7 -55 c26 -200 136 -383 353 -585 132 -122 215
-188 360 -285 l117 -79 58 37 c188 122 313 222 473 382 127 126 170 183 229
298 35 70 70 182 70 226 0 18 4 26 9 21 11 -13 -3 -117 -29 -212 -28 -101 -83
-239 -144 -358 -28 -55 -53 -104 -55 -109 -2 -4 25 14 60 42 35 27 145 103
244 167 216 142 277 191 315 258 55 97 47 187 -32 341 -79 154 -88 176 -107
249 -11 39 -22 95 -25 122 -5 47 -4 44 27 -40 37 -105 90 -203 150 -282 36
-49 317 -317 324 -310 1 2 -22 99 -52 216 -94 365 -95 505 -8 906 51 238 60
365 30 443 -15 40 -15 42 2 33 34 -19 103 -103 128 -158 47 -102 46 -291 -1
-488 -15 -59 -24 -110 -22 -113 8 -7 110 85 170 153 179 203 290 436 303 635
9 136 -34 237 -144 341 -69 66 -125 102 -312 197 -91 46 -167 85 -168 86 -2 1
30 3 70 4 71 1 427 61 427 72 0 3 -71 41 -157 85 -270 137 -460 277 -631 463
-143 156 -285 302 -294 302 -4 0 -8 -17 -8 -37 l0 -38 -78 -1 -79 -2 24 65
c13 35 23 67 23 72 0 4 -35 31 -78 59 -82 53 -179 149 -235 232 -34 51 -47 55
-47 14 0 -13 -4 -25 -9 -29 -6 -3 -49 18 -98 46 -96 57 -201 154 -276 257
l-46 62 -56 -74z m160 -213 c26 -24 72 -59 101 -78 59 -39 62 -46 37 -66 -53
-44 -133 -217 -133 -288 l1 -26 30 35 c24 28 29 30 24 13 -3 -12 -1 -40 5 -63
28 -105 199 -116 299 -20 22 22 41 44 41 50 0 5 -21 1 -47 -9 -27 -10 -60 -21
-75 -25 l-26 -6 20 53 c22 56 28 163 14 252 l-7 50 21 -34 c29 -46 120 -133
197 -188 69 -49 69 -43 19 -142 -41 -79 -119 -165 -201 -220 -89 -59 -123 -67
-66 -15 35 31 111 133 111 148 0 3 -21 -9 -47 -28 -73 -52 -122 -73 -188 -80
-77 -9 -159 -47 -201 -92 l-34 -35 -30 34 c-40 46 -107 77 -200 92 -82 13
-119 29 -194 84 l-50 35 25 -44 c13 -24 50 -71 83 -103 l58 -59 -70 37 c-112
58 -214 169 -267 289 l-24 54 90 67 c49 36 111 92 137 123 l47 57 0 -130 c0
-107 3 -136 18 -163 10 -19 17 -36 14 -38 -2 -2 -36 7 -75 20 -40 14 -72 21
-72 17 0 -12 73 -78 105 -94 75 -37 180 -26 217 24 11 14 22 45 25 69 l6 43
25 -29 24 -29 -6 54 c-7 67 -61 184 -110 239 -20 21 -36 42 -36 44 0 3 26 22
57 43 71 47 156 127 184 172 l21 34 27 -43 c15 -24 49 -62 76 -85z m-823 -602
c28 -7 58 -30 120 -93 90 -91 171 -146 258 -173 35 -10 65 -28 82 -48 30 -34
24 -46 -22 -48 -14 0 6 -9 44 -20 93 -26 165 -62 204 -100 l32 -31 35 31 c48
42 105 70 195 97 41 13 66 23 55 24 -65 2 -49 46 29 80 28 12 67 28 86 37 61
26 156 100 218 169 64 71 90 83 194 84 46 0 47 -1 83 -57 35 -57 85 -198 100
-278 6 -37 2 -33 -50 50 -31 50 -74 108 -95 129 -37 38 -39 39 -71 26 -61 -26
-174 -107 -236 -170 -35 -35 -63 -67 -63 -71 0 -5 19 -13 42 -20 51 -13 142
-58 135 -66 -3 -3 -45 -18 -94 -35 -86 -28 -174 -72 -222 -109 -30 -24 -28
-24 39 2 74 29 186 29 257 1 72 -28 142 -81 194 -148 50 -65 48 -76 -22 -112
-48 -25 -97 -25 -174 -2 -53 17 -97 4 -204 -60 -131 -77 -209 -77 -293 -2
l-41 37 7 -44 c12 -76 29 -98 155 -199 49 -40 81 -97 82 -149 0 -36 1 -37 11
-13 54 125 62 132 173 144 38 4 79 17 112 36 29 17 62 30 73 30 12 0 35 -21
62 -57 23 -32 64 -82 92 -111 50 -52 50 -52 29 -67 -33 -23 -137 -157 -162
-209 -13 -25 -25 -46 -28 -46 -10 0 8 172 21 212 8 21 11 38 7 38 -4 0 -28
-21 -53 -47 -92 -94 -127 -228 -94 -366 23 -96 21 -194 -4 -234 -24 -40 -91
-90 -142 -105 -32 -9 -48 -9 -86 4 -97 33 -248 101 -271 122 -22 20 -23 25
-18 131 5 128 22 181 62 191 26 6 75 2 106 -10 25 -10 82 35 107 86 17 33 22
59 20 95 l-3 48 -23 -36 c-30 -49 -66 -63 -139 -54 -50 5 -66 3 -113 -19 -69
-32 -84 -32 -154 0 -48 22 -65 25 -119 19 -73 -7 -101 4 -134 54 l-22 33 -7
-26 c-3 -15 -1 -47 5 -73 23 -90 87 -146 141 -123 15 6 45 10 66 8 52 -4 71
-39 84 -159 8 -74 8 -104 -2 -134 -13 -37 -18 -41 -148 -98 -173 -76 -211 -79
-293 -25 -96 64 -117 142 -81 295 23 98 15 205 -20 277 -26 53 -113 153 -123
142 -3 -3 0 -20 6 -38 7 -18 15 -73 17 -123 l5 -90 -29 51 c-42 75 -70 112
-130 175 l-53 57 28 20 c16 11 56 57 88 102 61 83 93 104 124 81 38 -28 102
-51 157 -57 98 -11 122 -31 159 -133 l14 -36 1 35 c1 74 42 130 148 203 45 30
92 113 92 160 l0 29 -29 -31 c-76 -81 -188 -79 -313 7 -24 17 -68 38 -98 48
-45 15 -59 16 -94 5 -96 -30 -152 -24 -210 22 l-30 24 23 36 c30 50 131 140
183 166 92 44 207 47 303 7 54 -23 53 -14 -2 22 -62 40 -164 85 -228 102 -27
7 -54 16 -59 21 -11 10 77 55 138 70 l45 11 -37 46 c-52 63 -144 136 -229 179
l-71 37 -23 -19 c-31 -28 -91 -110 -129 -178 -18 -32 -34 -56 -36 -54 -2 2 6
41 17 88 24 95 67 197 105 246 22 29 30 33 72 33 26 0 64 -4 84 -9z m-318
-136 c-57 -143 -165 -276 -304 -374 l-75 -54 80 6 c44 4 94 9 112 13 31 6 32
5 38 -38 15 -99 -42 -191 -211 -340 -57 -50 -104 -93 -104 -94 0 -2 37 14 83
35 117 54 283 91 415 91 l34 0 -47 -52 c-77 -85 -144 -186 -196 -293 -67 -139
-93 -237 -93 -355 -1 -138 12 -156 34 -48 10 48 21 91 24 97 12 19 125 -61
200 -141 47 -49 87 -104 113 -155 50 -96 63 -135 79 -238 l12 -80 1 67 c1 92
-16 210 -43 291 -26 77 -26 77 62 24 79 -47 173 -152 218 -242 50 -100 54
-157 23 -307 -32 -156 -33 -348 -1 -461 21 -74 73 -190 89 -200 5 -3 9 30 9
72 2 67 24 219 41 276 3 11 18 -52 34 -145 57 -343 143 -617 241 -772 19 -29
38 -60 43 -68 11 -18 -55 34 -192 153 -285 246 -412 456 -413 683 0 39 11 126
25 194 44 212 43 378 -2 479 l-17 36 -3 -30 c-21 -199 -52 -311 -133 -484 -74
-161 -90 -215 -90 -317 0 -101 25 -187 87 -303 l45 -85 -58 50 c-33 28 -93 76
-135 106 -128 95 -160 146 -145 236 3 20 37 100 75 177 80 161 108 245 120
362 21 209 -35 402 -154 529 l-46 49 6 -39 c42 -254 12 -471 -91 -666 -49 -92
-142 -214 -130 -170 26 98 38 234 32 390 -5 166 -15 230 -81 540 -34 160 -31
239 12 331 60 128 145 242 297 397 68 69 77 82 58 82 -40 0 -173 -50 -272
-101 -99 -52 -263 -166 -220 -153 61 18 100 24 165 24 l70 0 -76 -34 c-222
-96 -378 -264 -410 -441 -11 -61 -6 -166 11 -226 5 -18 8 -34 6 -36 -7 -7
-118 179 -158 265 -107 227 -98 395 28 517 68 66 109 92 300 189 254 128 346
192 385 268 23 44 22 84 -1 81 -8 -1 -40 -10 -71 -22 -100 -36 -286 -53 -359
-32 -24 7 -23 8 20 31 163 84 414 286 555 447 39 44 71 79 73 78 2 -2 -9 -33
-24 -70z m2146 -35 c121 -135 388 -347 530 -420 l45 -23 -35 -10 c-66 -18
-238 -2 -336 31 -52 18 -93 27 -98 21 -18 -17 14 -90 60 -135 61 -62 133 -106
334 -206 260 -130 357 -214 395 -341 31 -103 12 -214 -64 -373 -48 -100 -150
-269 -158 -261 -2 2 1 17 7 33 6 16 14 65 17 109 16 225 -112 410 -372 541
l-110 55 90 -4 c50 -3 101 -9 115 -13 43 -13 8 19 -95 86 -132 85 -312 161
-379 160 -19 -1 -19 -3 10 -28 105 -93 274 -303 326 -406 74 -147 76 -193 14
-481 -24 -115 -50 -255 -57 -309 -14 -117 -6 -334 16 -446 19 -97 20 -96 -13
-58 -81 94 -147 223 -184 359 -18 69 -22 110 -23 234 0 83 3 177 8 210 l7 60
-45 -50 c-58 -63 -121 -189 -140 -280 -19 -88 -19 -240 -1 -325 22 -100 42
-154 113 -295 99 -196 97 -270 -10 -352 -23 -18 -90 -70 -148 -116 l-106 -83
48 90 c62 119 83 191 82 291 0 103 -11 141 -88 305 -75 158 -110 274 -128 420
l-13 105 -21 -56 c-42 -109 -39 -283 8 -479 23 -96 26 -231 8 -306 -42 -173
-181 -363 -409 -558 -207 -177 -219 -185 -164 -111 99 135 211 477 265 809 13
80 27 146 30 146 8 0 38 -174 47 -275 l8 -80 35 70 c61 119 74 180 74 350 0
121 -5 170 -24 255 -31 140 -26 195 24 296 28 58 58 98 114 154 65 64 175 140
186 128 2 -1 -7 -34 -20 -73 -24 -70 -46 -208 -44 -275 0 -25 6 -11 20 49 10
47 39 127 65 180 39 80 60 108 133 181 48 47 110 97 138 113 l51 27 16 -69 c9
-39 16 -79 16 -90 0 -12 4 -21 9 -21 13 0 21 38 21 107 0 201 -123 478 -295
662 l-50 54 94 -7 c154 -11 270 -41 386 -97 l60 -29 -70 62 c-201 178 -267
278 -247 374 7 33 12 39 33 37 13 -1 62 -5 109 -9 l85 -7 -70 50 c-144 103
-269 264 -320 415 -14 41 -14 42 3 22 9 -11 46 -53 82 -94z m-2094 -591 c109
-125 150 -148 289 -160 123 -11 169 -20 258 -52 73 -27 157 -73 157 -87 0 -14
-85 -60 -123 -67 -53 -8 -102 13 -166 73 -56 51 -62 54 -160 75 -146 31 -187
59 -276 186 -39 57 -84 117 -101 135 l-29 32 35 -21 c19 -12 71 -63 116 -114z
m2102 112 c-14 -11 -58 -68 -98 -126 -106 -154 -129 -170 -300 -206 -90 -20
-98 -24 -151 -74 -61 -58 -117 -81 -171 -71 -41 7 -120 56 -115 71 6 18 160
90 233 108 39 10 118 22 175 26 57 5 115 14 129 19 47 19 107 70 168 144 34
41 79 87 99 101 43 31 68 37 31 8z m-1346 -1566 c30 -26 33 -27 36 -9 3 23 68
65 138 90 44 15 57 16 96 5 61 -17 148 -68 148 -86 0 -8 6 -15 13 -15 16 0 70
55 88 90 l12 25 9 -30 c13 -45 0 -111 -28 -145 -30 -35 -38 -37 -66 -10 -65
60 -243 84 -343 46 -27 -10 -65 -30 -82 -43 -26 -19 -37 -22 -53 -13 -30 16
-52 68 -52 121 0 67 11 80 33 37 10 -20 33 -48 51 -63z m367 -126 c25 -11 60
-31 79 -45 30 -24 36 -25 65 -13 44 17 97 48 126 73 l23 21 -4 -80 c-5 -94
-41 -185 -93 -235 l-33 -32 -7 89 -8 88 -18 -77 c-18 -77 -51 -151 -87 -197
l-19 -23 -12 101 c-7 55 -18 120 -26 143 -13 43 -13 42 -14 -57 -1 -117 -18
-191 -63 -278 l-33 -62 -5 70 -4 70 -6 -75 -5 -75 -27 46 c-54 89 -70 154 -72
281 0 64 -4 113 -9 109 -7 -7 -29 -119 -42 -216 l-7 -50 -29 35 c-33 39 -61
108 -79 195 -15 69 -16 67 -25 -40 l-7 -80 -39 43 c-49 55 -79 137 -86 231
l-6 74 34 -26 c19 -14 60 -38 92 -52 l57 -26 44 30 c115 79 227 92 345 40z"/>
<path d="M4732 2953 c-72 -35 -107 -126 -100 -254 9 -148 78 -225 194 -216
107 8 164 90 164 238 0 96 -11 138 -48 188 -44 59 -139 79 -210 44z"/>
<path d="M3910 2880 l0 -70 73 0 c95 0 119 15 115 73 -4 53 -29 67 -120 67
l-68 0 0 -70z"/>
<path d="M3910 2579 l0 -81 91 4 c81 3 93 6 110 27 26 32 25 82 -4 109 -20 19
-35 22 -110 22 l-87 0 0 -81z"/>
<path d="M3252 1871 c-16 -52 -16 -51 18 -51 17 0 30 3 30 6 0 17 -24 84 -30
84 -4 0 -12 -17 -18 -39z"/>
<path d="M4930 1890 l0 -40 45 0 c34 0 47 5 55 20 19 36 -3 60 -55 60 l-45 0
0 -40z"/>
<path d="M6522 1871 c-16 -52 -16 -51 18 -51 17 0 30 3 30 6 0 17 -24 84 -30
84 -4 0 -12 -17 -18 -39z"/>
</g>
</svg>
